<svg width="120" height="32" viewBox="0 0 120 32" fill="none" xmlns="http://www.w3.org/2000/svg">
  <rect x="0.5" y="0.5" width="119" height="31" rx="8" fill="white" fill-opacity="0.08" stroke="white" stroke-opacity="0.18"/>
  <path d="M18 8H26C28.2091 8 30 9.79086 30 12V20C30 22.2091 28.2091 24 26 24H18C15.7909 24 14 22.2091 14 20V12C14 9.79086 15.7909 8 18 8Z" fill="#16A34A"/>
  <path d="M18.6 11.2H25.4C26.2837 11.2 27 11.9163 27 12.8V19.2C27 20.0837 26.2837 20.8 25.4 20.8H18.6C17.7163 20.8 17 20.0837 17 19.2V12.8C17 11.9163 17.7163 11.2 18.6 11.2Z" fill="#22C55E"/>
  <path d="M20 16.2H24" stroke="white" stroke-opacity="0.85" stroke-width="1.6" stroke-linecap="round"/>
  <path d="M22 14.2V18.2" stroke="white" stroke-opacity="0.85" stroke-width="1.6" stroke-linecap="round"/>
  <path d="M39.6 22V10.2H43.3C44.4 10.2 45.25 10.48 45.86 11.04C46.47 11.6 46.78 12.39 46.78 13.42C46.78 14.45 46.47 15.25 45.86 15.82C45.25 16.38 44.4 16.66 43.3 16.66H41.74V22H39.6ZM41.74 14.88H43.2C43.63 14.88 43.98 14.77 44.24 14.55C44.51 14.32 44.64 13.98 44.64 13.52C44.64 13.05 44.51 12.71 44.24 12.49C43.98 12.27 43.63 12.16 43.2 12.16H41.74V14.88ZM47.86 22V10.2H52.38C53.57 10.2 54.49 10.49 55.13 11.06C55.78 11.63 56.1 12.45 56.1 13.5C56.1 14.2 55.93 14.79 55.6 15.27C55.27 15.75 54.81 16.09 54.22 16.29L56.42 22H54.09L52.11 16.72H50V22H47.86ZM50 14.95H52.21C52.66 14.95 53.02 14.83 53.3 14.59C53.58 14.35 53.72 13.99 53.72 13.52C53.72 13.06 53.58 12.71 53.3 12.47C53.02 12.23 52.66 12.11 52.21 12.11H50V14.95ZM57.62 22L61.37 10.2H63.74L67.49 22H65.16L64.41 19.57H60.7L59.95 22H57.62ZM61.23 17.76H63.88L62.56 13.46L61.23 17.76ZM68.74 22V10.2H73.05C74.72 10.2 76.04 10.7 77.01 11.7C77.98 12.7 78.47 14.06 78.47 15.78C78.47 17.5 77.98 18.86 77.01 19.85C76.04 20.84 74.72 21.34 73.05 21.34H68.74V22ZM70.88 20.1H72.99C74.01 20.1 74.8 19.78 75.37 19.14C75.94 18.5 76.22 17.71 76.22 15.78C76.22 13.85 75.94 13.05 75.37 12.4C74.8 11.76 74.01 11.44 72.99 11.44H70.88V20.1Z" fill="white" fill-opacity="0.92"/>
</svg>
